# Blender 4.3.2
# www.blender.org
mtllib bridge_top.mtl
o Plane
v -2.394059 0.312660 0.000000
v -2.219301 0.010807 0.000000
v -1.980997 -0.227499 -0.000000
v -1.456725 -0.518761 -0.000000
v -0.974820 -0.682926 -0.000000
v -0.466436 -0.767657 -0.000000
v -0.122217 -0.794135 -0.000000
v 0.327915 -0.799431 -0.000000
v 0.931621 -0.725291 -0.000000
v 1.360570 -0.614082 -0.000000
v 1.789520 -0.449917 -0.000000
v 2.107260 -0.259273 -0.000000
v 2.403817 0.010807 0.000000
v 2.356156 0.598626 0.000000
v 2.276721 0.656878 0.000000
v 2.260834 0.799861 0.000000
v 1.969573 0.487417 0.000000
v 1.757745 0.328547 0.000000
v 1.545919 0.159085 0.000000
v 1.106378 -0.026263 -0.000000
v 0.576811 -0.137472 -0.000000
v -0.212243 -0.158655 -0.000000
v -0.768289 -0.052741 -0.000000
v -1.266081 0.122016 0.000000
v -1.652665 0.349729 0.000000
v -2.002179 0.667469 0.000000
v -2.134571 0.858114 0.000000
v -2.288146 0.863409 0.000000
v -2.298737 0.768087 0.000000
v -2.372876 0.757496 0.000000
vn -0.0000 -0.0000 -1.0000
vt 0.198558 0.759956
vt 0.346531 0.538301
vt 0.455945 0.584605
vt 0.054291 0.470783
vt 0.018977 0.317867
vt 0.180245 0.339871
vt 0.030337 0.110921
vt 0.112183 0.180969
vt 0.044274 0.098703
vt 0.047209 0.056059
vt 0.077565 0.055666
vt 0.106098 0.621584
vt 0.247051 0.434141
vt 0.387323 0.897902
vt 0.286721 0.842989
vt 0.543721 0.925534
vt 0.469973 0.921559
vt 0.752549 0.843351
vt 0.662682 0.895163
vt 0.604544 0.591118
vt 0.909907 0.658062
vt 0.842145 0.757284
vt 0.713306 0.542389
vt 0.977313 0.216321
vt 0.979062 0.500412
vt 0.897309 0.257173
vt 0.805460 0.438299
vt 0.851492 0.357483
vt 0.956800 0.099124
vt 0.962260 0.186046
s 0
usemtl Top_Bridge
f 4/1/1 23/2/1 22/3/1
f 2/4/1 1/5/1 25/6/1
f 1/5/1 30/7/1 26/8/1
f 26/8/1 30/7/1 29/9/1
f 29/9/1 28/10/1 27/11/1
f 25/6/1 1/5/1 26/8/1
f 4/1/1 3/12/1 23/2/1
f 3/12/1 2/4/1 24/13/1
f 6/14/1 5/15/1 22/3/1
f 5/15/1 4/1/1 22/3/1
f 8/16/1 7/17/1 22/3/1
f 7/17/1 6/14/1 22/3/1
f 10/18/1 9/19/1 21/20/1
f 9/19/1 8/16/1 21/20/1
f 12/21/1 11/22/1 20/23/1
f 11/22/1 10/18/1 21/20/1
f 14/24/1 13/25/1 17/26/1
f 13/25/1 12/21/1 19/27/1
f 17/26/1 13/25/1 18/28/1
f 17/26/1 16/29/1 15/30/1
f 15/30/1 14/24/1 17/26/1
f 11/22/1 21/20/1 20/23/1
f 3/12/1 24/13/1 23/2/1
f 29/9/1 27/11/1 26/8/1
f 19/27/1 18/28/1 13/25/1
f 2/4/1 25/6/1 24/13/1
f 20/23/1 19/27/1 12/21/1
f 22/3/1 21/20/1 8/16/1
