# Blender 4.3.2
# www.blender.org
mtllib grotto_pool.mtl
o Plane
v 2.489843 1.050937 -0.005672
v -2.524000 1.050937 -0.005672
v 1.745260 -0.993128 -0.005672
v -2.489843 -0.720655 -0.005672
v 2.406269 0.446907 -0.005672
v 2.329638 0.332285 -0.005672
v 2.413773 0.163277 -0.005672
v 2.141510 -0.202244 -0.005672
v 2.144993 -0.368923 -0.005672
v 2.021524 -0.568656 -0.005672
v 1.891500 -0.887646 -0.005672
v 1.788978 -0.826240 -0.005672
v 0.784188 -0.959536 -0.005672
v 0.437848 -0.892599 -0.005672
v -0.126135 -0.950521 -0.005672
v -0.216404 -0.871473 -0.005672
v -0.539030 -0.917958 -0.005672
v -0.640647 -0.764631 -0.005672
v -0.816377 -0.890811 -0.005672
v -1.146944 -0.848290 -0.005672
v -1.479521 -0.937469 -0.005672
v -1.658981 -0.817270 -0.005672
v -1.755344 -0.890338 -0.005672
v -2.280463 -0.860969 -0.005672
vn -0.0000 -0.0000 -1.0000
vt 0.000000 0.000000
s 0
f 18/1/1 19/1/1 20/1/1
f 4/1/1 2/1/1 18/1/1
f 2/1/1 1/1/1 5/1/1
f 2/1/1 5/1/1 6/1/1
f 23/1/1 24/1/1 22/1/1
f 24/1/1 4/1/1 22/1/1
f 21/1/1 22/1/1 20/1/1
f 2/1/1 6/1/1 18/1/1
f 6/1/1 7/1/1 8/1/1
f 8/1/1 9/1/1 14/1/1
f 9/1/1 10/1/1 14/1/1
f 10/1/1 11/1/1 12/1/1
f 12/1/1 3/1/1 13/1/1
f 14/1/1 15/1/1 16/1/1
f 12/1/1 13/1/1 14/1/1
f 10/1/1 12/1/1 14/1/1
f 6/1/1 8/1/1 18/1/1
f 22/1/1 4/1/1 18/1/1
f 16/1/1 17/1/1 18/1/1
f 8/1/1 14/1/1 18/1/1
f 14/1/1 16/1/1 18/1/1
f 20/1/1 22/1/1 18/1/1
