# Blender 4.3.2
# www.blender.org
mtllib mushroom_acid_pool.mtl
o Plane.001
v -2.496541 -0.703679 0.000000
v 2.446913 -0.703679 0.000000
v -2.363694 -0.073578 0.000000
v -2.119116 0.230319 0.000000
v -1.876312 0.465871 0.000000
v -1.618412 0.618055 0.000000
v -1.349901 0.675201 0.000000
v -1.126895 0.664386 0.000000
v -0.816573 0.569873 0.000000
v -0.488814 0.374792 0.000000
v -0.175669 0.228260 0.000000
v 0.064172 0.204643 0.000000
v 0.290154 0.314592 0.000000
v 0.515910 0.440790 0.000000
v 0.860353 0.454062 0.000000
v 1.098154 0.383092 0.000000
v 1.626182 -0.022781 0.000000
v 1.784317 -0.079192 0.000000
v 1.998383 -0.113351 0.000000
v 2.223030 -0.240224 0.000000
vn -0.0000 -0.0000 1.0000
vt 0.719935 0.772206
vt 0.558111 0.723534
vt 0.512852 0.645409
vt 0.026606 0.447719
vt 0.000000 0.000000
vt 0.990061 0.000000
vt 0.857358 0.443730
vt 0.945222 0.329308
vt 0.900230 0.419459
vt 0.075590 0.663654
vt 0.464818 0.662191
vt 0.825687 0.483813
vt 0.175869 0.939160
vt 0.124218 0.831025
vt 0.336459 0.904924
vt 0.402102 0.766309
vt 0.274309 0.972080
vt 0.229646 0.979765
vt 0.672309 0.822635
vt 0.603325 0.813204
s 0
f 16/1/1 13/2/1 12/3/1
f 3/4/1 1/5/1 12/3/1
f 1/5/1 2/6/1 18/7/1
f 2/6/1 20/8/1 18/7/1
f 20/8/1 19/9/1 18/7/1
f 4/10/1 3/4/1 11/11/1
f 1/5/1 18/7/1 12/3/1
f 12/3/1 18/7/1 17/12/1
f 6/13/1 5/14/1 9/15/1
f 5/14/1 4/10/1 10/16/1
f 8/17/1 7/18/1 6/13/1
f 10/16/1 9/15/1 5/14/1
f 9/15/1 8/17/1 6/13/1
f 11/11/1 10/16/1 4/10/1
f 17/12/1 16/1/1 12/3/1
f 16/1/1 15/19/1 14/20/1
f 12/3/1 11/11/1 3/4/1
f 16/1/1 14/20/1 13/2/1
